<svg width="18" height="18" viewBox="0 0 18 18" fill="none" xmlns="http://www.w3.org/2000/svg">
<g id="direction/left-circle">
<path id="Vector" fill-rule="evenodd" clip-rule="evenodd" d="M15 9C15 5.68629 12.3137 3 9 3C5.68629 3 3 5.68629 3 9C3 12.3137 5.68629 15 9 15C12.3137 15 15 12.3137 15 9ZM9 1.5C13.1421 1.5 16.5 4.85786 16.5 9C16.5 13.1421 13.1421 16.5 9 16.5C4.85786 16.5 1.5 13.1421 1.5 9C1.5 4.85786 4.85786 1.5 9 1.5ZM6.78769 11.6517L9.43934 9L6.78769 6.34835L7.84835 5.28769L11.5607 9L7.84835 12.7123L6.78769 11.6517Z" fill="#666666"/>
</g>
</svg>
